<?xml version="1.0" encoding="utf-8"?>
<!-- Generator: Adobe Illustrator 22.0.0, SVG Export Plug-In . SVG Version: 6.00 Build 0)  -->
<svg version="1.1" id="图层_1" xmlns="http://www.w3.org/2000/svg" xmlns:xlink="http://www.w3.org/1999/xlink" x="0px" y="0px"
	 viewBox="0 0 237 60.2" style="enable-background:new 0 0 237 60.2;" xml:space="preserve">
<style type="text/css">
	.st0{fill:#FFFFFF;}
	.st1{fill:#FF0000;}
</style>
<title>logo</title>
<polygon class="st0" points="72,49.3 68.3,49.3 68.3,42.7 71.9,42.7 71.9,43.4 69.6,43.4 69.6,45.5 71.8,45.6 71.6,46.2 69.6,46.2 
	69.6,48.6 72.1,48.6 "/>
<path class="st0" d="M84.9,52.4c-0.2,0-0.5,0-0.7-0.1c-0.1,0-0.4-0.1-0.5-0.2c-0.1-0.1-0.2-0.1-0.2-0.2c0-0.1-0.1-0.2-0.1-0.4
	s0.1-0.5,0.2-0.6s0.4-0.4,0.6-0.5l0.2,0.1c0,0.1,0,0.2,0,0.2c0,0.1,0,0.1,0,0.2c0,0.2,0.1,0.4,0.2,0.5s0.4,0.2,0.6,0.2
	c0.1,0,0.2,0,0.4,0H86l0.4-0.1c0.1,0,0.1,0,0.2-0.1s0.1-0.1,0.2-0.2c0-0.1,0-0.2,0-0.4c0-0.4-0.4-0.5-0.9-0.5h-0.7
	c-0.4,0-0.7,0-1.1-0.2s-0.5-0.7-0.2-1.1c0-0.1,0.1-0.2,0.2-0.4c0.1-0.1,0.1-0.2,0.2-0.2c0.1-0.1,0.1-0.1,0.2-0.2
	c-0.1-0.1-0.2-0.1-0.4-0.2c-0.1-0.1-0.2-0.2-0.2-0.4c-0.1-0.1-0.1-0.2-0.2-0.5c-0.1-0.5-0.1-0.8,0.1-1.3c0.1-0.2,0.2-0.4,0.4-0.6
	c0.1-0.1,0.4-0.2,0.6-0.4s0.5-0.1,0.7-0.1s0.4,0,0.6,0c0.1,0,0.4,0.1,0.5,0.1h0.7l0.7-0.1l-0.4,0.6c-0.1,0-0.2,0.1-0.4,0.1
	s-0.2,0-0.4,0c0.1,0.1,0.1,0.2,0.1,0.4C87,46,87,46.3,87,46.5s0,0.5-0.1,0.7s-0.2,0.4-0.4,0.5c-0.1,0.1-0.4,0.2-0.6,0.4
	c-0.2,0.1-0.5,0.1-0.7,0.1h-0.4h-0.1h-0.1c0,0.1-0.1,0.1-0.1,0.2c0,0.1,0,0.1,0,0.2c0,0.1,0,0.2,0.1,0.2s0.4,0.1,0.5,0H86
	c0.2,0,0.5,0,0.7,0.1c0.2,0,0.4,0.1,0.5,0.2c0.1,0.1,0.2,0.2,0.2,0.4s0.1,0.4,0.1,0.6c0,0.2-0.1,0.6-0.2,0.8s-0.4,0.5-0.6,0.7
	s-0.6,0.4-0.9,0.5C85.6,52.4,85.3,52.4,84.9,52.4 M85.4,47.8c0.1,0,0.2,0,0.2,0c0.1,0,0.1,0,0.2-0.1c0.1,0,0.1-0.1,0.1-0.4
	s0.1-0.5,0-0.7c0-0.1,0-0.4,0-0.5s-0.1-0.2-0.1-0.4c0-0.1-0.1-0.1-0.2-0.2c-0.1-0.1-0.2-0.1-0.4-0.1s-0.1,0-0.2,0s-0.1,0-0.2,0.1
	c-0.1,0-0.1,0.1-0.1,0.4c0,0.2-0.1,0.5,0,0.7c0,0.1,0,0.2,0,0.5c0,0.1,0.1,0.2,0.1,0.4s0.1,0.2,0.2,0.2
	C85.2,47.6,85.3,47.8,85.4,47.8"/>
<path class="st0" d="M78.2,45.9c0-0.1,0-0.1,0-0.2v-0.1V43l1.2-0.2v7.5h-0.9l-0.4-0.5l0,0c-0.2,0.1-0.4,0.2-0.6,0.4
	s-0.5,0.1-0.7,0.1s-0.5,0-0.7-0.1s-0.4-0.2-0.6-0.4c-0.1-0.2-0.4-0.5-0.4-0.7C75,48.7,75,48.4,75,48.2c0-0.4,0-0.7,0.1-1.1
	c0.1-0.2,0.2-0.6,0.4-0.7c0.2-0.2,0.4-0.4,0.7-0.5c0.2-0.1,0.6-0.1,0.8-0.1h0.5L78.2,45.9 M76.5,48c0,0.4,0,0.8,0.2,1.1
	c0.1,0.2,0.4,0.4,0.7,0.4c0.1,0,0.2,0,0.4,0c0.1,0,0.2,0,0.2-0.1v-2.8c-0.2,0-0.4,0-0.6,0c-0.1,0-0.4,0-0.5,0s-0.2,0.1-0.4,0.1
	c-0.1,0.1-0.1,0.4-0.2,0.5C76.5,47.4,76.5,47.8,76.5,48"/>
<path class="st0" d="M92.3,44.8c0.2,0,0.4,0,0.6,0.1c0.2,0,0.4,0.1,0.6,0.2c0.1,0.1,0.4,0.4,0.5,0.6c0.1,0.2,0.2,0.6,0.2,0.8l0,0
	l-0.1,0.1c-0.1,0-0.1,0.1-0.2,0.1s-0.2,0-0.4,0.1c-0.1,0-0.4,0-0.6,0l-1.4,0.1v0.2c0,0.2,0.1,0.6,0.2,0.8c0.2,0.2,0.5,0.4,0.8,0.4
	c0.1,0,0.4,0,0.5,0s0.4-0.1,0.5-0.1s0.2-0.1,0.4-0.1c0.1,0,0.2-0.1,0.2-0.1l0.1,0.4c-0.1,0.1-0.2,0.2-0.5,0.4
	c-0.1,0.1-0.4,0.2-0.5,0.2c-0.2,0.1-0.4,0.1-0.6,0.2c-0.2,0-0.5,0.1-0.7,0.1s-0.5,0-0.7-0.1s-0.5-0.2-0.6-0.4s-0.4-0.5-0.4-0.7
	c-0.1-0.4-0.1-0.7-0.1-0.9c0-0.4,0-0.7,0.1-1.2c0.1-0.2,0.2-0.5,0.5-0.7c0.2-0.2,0.5-0.4,0.7-0.5C91.7,44.8,92,44.8,92.3,44.8
	 M91.7,45.5L91.7,45.5c-0.1,0.2-0.1,0.2-0.2,0.3c-0.1,0.1,0,0.2,0,0.4c0,0.1,0,0.2,0,0.4l1.4-0.1c0-0.1,0-0.2-0.1-0.4
	c0-0.1-0.1-0.2-0.1-0.4c0-0.1-0.1-0.2-0.2-0.2c0-0.1-0.1-0.1-0.2-0.1s-0.1,0-0.2,0S91.8,45.5,91.7,45.5"/>
<path class="st0" d="M105.7,47.4c0,0.2-0.1,0.5-0.1,0.7c-0.1,0.2-0.2,0.5-0.5,0.6c-0.2,0.2-0.5,0.4-0.7,0.5
	c-0.4,0.1-0.7,0.2-1.1,0.2c-0.2,0-0.4,0-0.6,0c-0.1,0-0.4,0-0.5-0.1c-0.1,0-0.2-0.1-0.5-0.1l-0.4-0.2l0.4-0.9
	c0.1,0.1,0.2,0.1,0.4,0.2s0.4,0.1,0.5,0.2c0.1,0.1,0.4,0.1,0.5,0.1s0.4,0,0.5,0s0.2,0,0.4,0c0.1,0,0.2,0,0.2-0.1
	c0.1,0,0.2-0.1,0.2-0.2c0.1-0.2,0.1-0.4,0.1-0.6c0-0.2-0.1-0.4-0.2-0.5s-0.4-0.2-0.6-0.4c0-0.2-0.2-0.2-0.5-0.4
	c-0.2-0.1-0.5-0.2-0.7-0.4c-0.2-0.1-0.5-0.4-0.6-0.6c-0.1-0.2-0.2-0.6-0.2-0.9c0-0.2,0-0.4,0.1-0.6c0.1-0.2,0.2-0.5,0.5-0.6
	c0.2-0.2,0.5-0.4,0.7-0.5c0.4-0.1,0.6-0.2,0.9-0.1c0.2,0,0.6,0,0.8,0s0.5,0.1,0.7,0.1l-0.2,0.9l-0.4-0.1l-0.5-0.1
	c-0.1,0-0.2,0-0.5-0.1h-0.4c-0.1,0-0.2,0-0.4,0s-0.2,0-0.2,0.1c-0.1,0-0.1,0.1-0.2,0.2c0,0.1,0,0.2,0,0.5c0,0.1,0,0.2,0.1,0.4
	c0.1,0.1,0.2,0.2,0.4,0.2c0.1,0.1,0.4,0.1,0.5,0.2l0.6,0.2c0.2,0.1,0.4,0.1,0.6,0.2c0.1,0.1,0.4,0.2,0.5,0.4
	c0.1,0.1,0.2,0.4,0.4,0.6C105.7,46.9,105.7,47.2,105.7,47.4"/>
<path class="st0" d="M110.9,44.8c0.2,0,0.4,0,0.6,0.1c0.2,0,0.4,0.1,0.6,0.2c0.1,0.1,0.4,0.4,0.5,0.6c0.1,0.2,0.2,0.6,0.2,0.8l0,0
	l-0.1,0.1c-0.1,0-0.1,0.1-0.2,0.1l-0.4,0.1c-0.1,0-0.4,0-0.6,0l-1.4,0.1v0.2c0,0.2,0.1,0.6,0.2,0.8c0.2,0.2,0.5,0.4,0.8,0.4
	c0.1,0,0.4,0,0.5,0c0.2-0.1,0.6-0.1,0.8-0.2c0.1,0,0.2-0.1,0.2-0.1l0.1,0.4c-0.1,0.1-0.2,0.2-0.5,0.4c-0.1,0.1-0.4,0.2-0.5,0.2
	c-0.2,0.1-0.4,0.1-0.6,0.2c-0.2,0-0.5,0.1-0.7,0.1s-0.5,0-0.7-0.1s-0.5-0.2-0.6-0.4s-0.4-0.5-0.4-0.7c-0.1-0.4-0.1-0.7-0.1-0.9
	c0-0.4,0-0.7,0.1-1.2c0.1-0.2,0.2-0.5,0.5-0.7c0.2-0.2,0.5-0.4,0.7-0.5C110.3,44.8,110.5,44.8,110.9,44.8 M110.3,45.5L110.3,45.5
	c-0.1,0.2-0.1,0.2-0.2,0.3c-0.1,0.1,0,0.2,0,0.4c0,0.1,0,0.2,0,0.4h1.3c0-0.1,0-0.2-0.1-0.4c0-0.1-0.1-0.2-0.1-0.4
	c0-0.1-0.1-0.2-0.2-0.2c-0.1-0.1-0.2-0.1-0.2-0.1c-0.1,0-0.1,0-0.2,0C110.4,45.4,110.3,45.5,110.3,45.5"/>
<path class="st0" d="M119.3,45.9c-0.2-0.1-0.4-0.1-0.6-0.2c-0.2-0.1-0.5-0.1-0.7-0.1c-0.1,0-0.2,0-0.4,0c-0.1,0-0.2,0-0.2,0.1
	c-0.1,0.1-0.1,0.2-0.1,0.5c-0.1,0.4-0.1,0.7-0.1,1.1c0,0.2,0,0.5,0,0.7c0,0.1,0.1,0.4,0.1,0.5c0.1,0.1,0.1,0.2,0.2,0.2
	s0.2,0.1,0.4,0.1c0.2,0,0.5,0,0.7-0.1c0.2,0,0.5-0.1,0.7-0.2l0.1,0.4c-0.2,0.2-0.5,0.4-0.8,0.5c-0.4,0.1-0.7,0.2-1.1,0.2
	c-0.2,0-0.5,0-0.7-0.1s-0.5-0.2-0.6-0.4c-0.2-0.2-0.4-0.5-0.4-0.7c-0.1-0.4-0.1-0.7-0.1-0.9c0-0.4,0-0.7,0.1-1.1
	c0.1-0.2,0.2-0.6,0.5-0.7c0.2-0.2,0.5-0.4,0.7-0.5c0.4-0.1,0.7-0.1,0.9-0.1c0.2,0,0.5,0,0.7,0s0.5,0.1,0.6,0.1v0.7H119.3z"/>
<path class="st0" d="M124.1,44.9v3c0,0.2,0,0.4,0.1,0.6c0.1,0.1,0.2,0.2,0.5,0.2c0.1,0,0.1,0,0.2,0l0.2-0.1l0.2-0.1l0.2-0.1V45h1.3
	v4.4h-1.1l-0.1-0.5l0,0c-0.1,0-0.2,0.1-0.4,0.2c-0.1,0.1-0.2,0.1-0.4,0.2c-0.1,0.1-0.2,0.1-0.5,0.1c-0.1,0-0.4,0.1-0.5,0.1
	s-0.4,0-0.5-0.1c-0.1,0-0.2-0.1-0.4-0.2c-0.1-0.1-0.2-0.2-0.2-0.4c-0.1-0.2-0.1-0.4-0.1-0.6V45h1.2v-0.1H124.1z"/>
<path class="st0" d="M133.2,45.9c-0.1,0-0.2-0.1-0.4-0.1c-0.1,0-0.2,0-0.4,0c-0.1,0-0.1,0-0.2,0h-0.1l-0.1,0.1l-0.1,0.1v3.2h-1.2
	v-4.4h1.1l0.1,0.7l0,0l0.1-0.2l0.1-0.2l0.1-0.2c0,0,0.1-0.1,0.2-0.1s0.2-0.1,0.4-0.1h0.5L133.2,45.9z"/>
<path class="st0" d="M137,42.4l0.8,0.8L137,44l-0.8-0.8L137,42.4z M137.7,49.3h-1.2v-4.4h1.2V49.3z"/>
<path class="st0" d="M141.5,45.5l-0.5-0.1v-0.2l1.3-0.9h0.4V45h1.3v0.5c-0.1,0-0.2,0-0.4,0h-0.5h-0.5V48c0,0.1,0,0.2,0.1,0.4
	c0.1,0.1,0.2,0.1,0.4,0.1h0.2h0.2h0.2h0.2v0.4c-0.1,0.1-0.2,0.1-0.4,0.2c-0.1,0.1-0.2,0.1-0.5,0.2c-0.1,0-0.4,0.1-0.5,0.1
	s-0.4,0-0.5,0s-0.2,0-0.4,0s-0.2,0-0.2-0.1c-0.1-0.1-0.1-0.1-0.2-0.2c0-0.1-0.1-0.2-0.1-0.5L141.5,45.5z"/>
<path class="st0" d="M147.9,51.4c-0.2,0.2-0.4,0.5-0.7,0.6c-0.2,0.1-0.5,0.2-0.7,0.2h-0.4c-0.1,0-0.2,0-0.4-0.1v-0.5h0.1
	c0.2,0,0.4,0,0.5-0.1c0.2-0.1,0.4-0.2,0.6-0.4c0.1-0.1,0.2-0.2,0.4-0.4l0.4-0.5c0.1-0.1,0.2-0.4,0.5-0.5c0.1-0.2,0.2-0.4,0.4-0.5
	c-0.1-0.5-0.4-0.9-0.5-1.4s-0.4-0.8-0.5-1.2s-0.2-0.6-0.4-0.8c-0.1-0.1-0.1-0.2-0.2-0.5c0,0-0.1-0.1-0.2-0.1h-0.1l0,0v-0.5h0.2h0.2
	h0.2h0.2c0.1,0,0.2,0,0.4,0s0.2,0.1,0.2,0.1c0.1,0.1,0.2,0.2,0.2,0.5c0.1,0.2,0.2,0.5,0.4,0.7c0.1,0.2,0.2,0.6,0.4,0.9
	c0.1,0.4,0.2,0.7,0.4,1.1l0,0c0.1-0.2,0.2-0.5,0.4-0.6c0.1-0.2,0.1-0.4,0.2-0.6c0-0.2,0.1-0.4,0.1-0.6s0-0.4,0-0.6
	c0-0.1,0-0.1,0-0.2v-0.2c0-0.1,0-0.1,0-0.1V45l0.9-0.1c0,0.1,0,0.2,0,0.2c0,0.1,0,0.2,0,0.4c0,0.4,0,0.6-0.1,0.9
	c-0.1,0.4-0.2,0.7-0.4,0.9c-0.1,0.4-0.4,0.6-0.5,0.9l-0.6,0.9l-0.5,0.8l-0.4,0.6l-0.4,0.5l-0.4,0.5"/>
<polygon class="st0" points="155.6,49.3 155.6,43.4 153.7,43.4 153.7,42.7 158.8,42.7 158.7,43.4 156.8,43.4 156.8,49.3 "/>
<path class="st0" d="M163.8,44.8c0.2,0,0.5,0,0.6,0.1c0.2,0.1,0.4,0.1,0.6,0.2c0.1,0.1,0.4,0.4,0.5,0.6c0.1,0.2,0.2,0.6,0.2,0.8l0,0
	l-0.1,0.1c-0.1,0-0.1,0.1-0.2,0.1l-0.4,0.1c-0.1,0-0.4,0-0.6,0l-1.4,0.1v0.2c0,0.2,0.1,0.6,0.2,0.8c0.2,0.2,0.5,0.4,0.8,0.4
	c0.1,0,0.4,0,0.5,0s0.4-0.1,0.5-0.1s0.2-0.1,0.4-0.1s0.2-0.1,0.2-0.1l0.1,0.4l-0.5,0.4c-0.1,0.1-0.4,0.2-0.6,0.2
	c-0.2,0.1-0.4,0.1-0.6,0.2c-0.2,0-0.5,0.1-0.7,0.1s-0.5,0-0.7-0.1s-0.5-0.2-0.6-0.4s-0.4-0.5-0.4-0.7c-0.1-0.4-0.1-0.7-0.1-0.9
	c0-0.4,0-0.7,0.1-1.2c0.1-0.2,0.2-0.5,0.5-0.7c0.2-0.2,0.5-0.4,0.7-0.5C163.2,44.8,163.4,44.8,163.8,44.8 M163.2,45.5l-0.1,0.1
	c0,0.1-0.1,0.2-0.1,0.2c0,0.1,0,0.2,0,0.4c0,0.1,0,0.2,0,0.4l1.4-0.1c0-0.1,0-0.2-0.1-0.4c0-0.1-0.1-0.2-0.1-0.4
	c0-0.1-0.1-0.2-0.2-0.2c-0.1-0.1-0.2-0.1-0.2-0.1c-0.1,0-0.1,0-0.2,0C163.3,45.4,163.2,45.5,163.2,45.5"/>
<path class="st0" d="M172.7,48.6c0.1,0,0.4,0,0.5-0.1v0.2c-0.1,0.1-0.1,0.1-0.2,0.2c-0.1,0-0.2,0.1-0.2,0.1c-0.1,0-0.2,0.1-0.4,0.1
	s-0.2,0-0.4,0c-0.1,0-0.2,0-0.2,0c-0.1,0-0.1-0.1-0.2-0.1c-0.1,0-0.1-0.1-0.1-0.1c0-0.1-0.1-0.1-0.1-0.2l-0.4,0.2
	c-0.1,0.1-0.2,0.1-0.4,0.2c-0.1,0-0.2,0.1-0.4,0.1c-0.1,0-0.2,0-0.4,0c-0.4,0-0.6-0.1-0.8-0.4c-0.2-0.2-0.4-0.6-0.2-0.9
	c0-0.2,0-0.4,0.1-0.6c0-0.1,0.1-0.4,0.2-0.5c0.1-0.1,0.4-0.2,0.5-0.2c0.2-0.1,0.5-0.1,0.7-0.1h0.7V46c0-0.1,0-0.2-0.1-0.4
	c-0.1-0.1-0.4-0.1-0.5-0.1c-0.2,0-0.4,0-0.6,0s-0.5,0.1-0.7,0.2l-0.1-0.5c0.1-0.1,0.4-0.1,0.5-0.2c0.1-0.1,0.4-0.1,0.5-0.1l0.5-0.1
	c0.1,0,0.4,0,0.5,0c0.2,0,0.4,0,0.5,0s0.2,0.1,0.4,0.2c0.1,0.1,0.2,0.2,0.2,0.4c0,0.1,0.1,0.4,0.1,0.5v2
	C172.3,48.5,172.4,48.7,172.7,48.6 M171.1,48.5L171.1,48.5c0-0.2,0-0.3,0-0.5s0-0.2,0-0.4v-0.5c-0.2,0-0.5,0-0.7,0
	c-0.1,0-0.2,0-0.2,0.1v0.1v0.1c0,0.1,0,0.1,0,0.2V48c0,0.1,0,0.4,0.1,0.5c0,0.1,0.1,0.2,0.2,0.2c0.1,0,0.2,0,0.4,0
	C171,48.6,171.1,48.6,171.1,48.5"/>
<path class="st0" d="M178.8,49.3v-3c0-0.2,0-0.4-0.1-0.6c-0.1-0.1-0.2-0.2-0.4-0.2c-0.1,0-0.4,0-0.5,0.1s-0.4,0.1-0.5,0.2v3.4h-1.2
	v-4.4h1.1l0.1,0.5l0,0l0.4-0.2c0.1-0.1,0.2-0.1,0.4-0.2c0.1-0.1,0.2-0.1,0.5-0.1c0.1,0,0.2-0.1,0.5-0.1c0.2,0,0.5,0,0.6,0.1
	c0.2,0.1,0.4,0.2,0.5,0.5c0.1-0.1,0.2-0.1,0.4-0.2c0.1-0.1,0.2-0.1,0.5-0.2c0.1-0.1,0.4-0.1,0.5-0.1s0.2-0.1,0.5-0.1
	c0.1,0,0.4,0,0.5,0.1c0.1,0,0.2,0.1,0.4,0.2c0.1,0.1,0.2,0.2,0.2,0.4c0.1,0.2,0.1,0.4,0.1,0.6v3.2H182v-3c0-0.2,0-0.4-0.1-0.6
	c-0.1-0.1-0.2-0.2-0.4-0.2s-0.4,0-0.5,0.1s-0.4,0.1-0.5,0.2v3.4H179v0.2H178.8z"/>
<path class="st0" d="M74.7,12.7h3.4v4h-3.3v22.8h-3.1V16.7h-3.3v-4h3.3v-2.3h3.1L74.7,12.7z M68.7,18.1h2.6l-0.4,21.3h-2.6
	L68.7,18.1z M77.8,18.1l0.4,21.3h-2.5l-0.4-21.3C75.3,18.1,77.8,18.1,77.8,18.1z M93.2,29.3c-0.2,1.1-0.5,2.1-0.9,3.1
	c-0.5,0.9-0.9,1.9-1.7,2.6c0.8,0.1,1.8,0.2,2.8,0.2v4.3c-1.4,0-2.7-0.1-4.1-0.4c-1.2-0.2-2.3-0.5-3.3-0.8c-1.1,0.4-2.3,0.7-3.3,0.9
	c-1.3,0.2-2.6,0.2-4,0.2v-4.1c0.9,0,2-0.1,3-0.2c-0.6-0.7-1.1-1.4-1.4-2.3c-0.4-0.8-0.7-1.7-0.9-2.6H84c0.2,0.6,0.6,1.3,0.9,1.9
	c0.4,0.6,0.8,1.1,1.4,1.4c0.7-0.5,1.2-1.1,1.7-1.8c0.5-0.7,0.8-1.5,1.2-2.4h-10l1.3-4.3H79l1.4-3.7h3.8l-1.3,3.4h1.5L84,25.6h9.2
	L93.2,29.3z M88.1,16.8h5.5v3.6h-15v-3.6h5.5v-1.4h-4.5v-3.6h4.5v-1.4h4v1.4h4.5v3.6h-4.5V16.8z M92.2,21.3l1.3,3.4h-3.9l-1.3-3.4
	H92.2z"/>
<path class="st0" d="M116.6,17.9l0.5-2.3H99.4l1.7-5.3h4.3l-0.5,1.4h16.8l-1.2,6.3h0.4c0.5,0,0.9,0.2,1.2,0.7
	c0.4,0.5,0.5,1.1,0.5,1.7v14.9c0,0.6-0.1,1.2-0.2,1.8c-0.1,0.5-0.4,0.9-0.7,1.4c-0.2,0.4-0.6,0.7-0.9,0.9c-0.4,0.2-0.8,0.4-1.2,0.4
	h-3.7l1.2-4h0.7c0.2,0,0.5-0.1,0.6-0.4c0.2-0.2,0.2-0.6,0.2-0.9v-0.1h-6.3v5.3h-4v-5.3H102v5.3h-4V17.9H116.6z M102,24.2h6.3v-2.3
	H102V24.2z M108.3,28.2H102v1.9h6.3V28.2z M117.5,21.8h-5.2v2.4h6.3v-0.9c0-0.4-0.1-0.7-0.2-1.1C118.1,22,117.9,21.8,117.5,21.8
	 M118.6,28.2h-6.3v1.9h6.3V28.2z"/>
<path class="st0" d="M75,12.6h3.3v4H75v22.8h-3.1V16.6h-3.3v-4h3.3v-2.3H75V12.6z M68.8,18.1h2.6L71,39.4h-2.6L68.8,18.1z
	 M77.9,18.1l0.4,21.3h-2.5l-0.4-21.3C75.4,18.1,77.9,18.1,77.9,18.1z M93.3,29.3c-0.2,1.1-0.5,2.1-0.9,3.1s-0.9,1.9-1.7,2.6
	c0.8,0.1,1.8,0.2,3,0.2v4.1c-1.5,0-2.8-0.1-4.1-0.4c-1.2-0.2-2.4-0.5-3.3-0.8c-0.9,0.4-2.1,0.7-3.3,0.9c-1.2,0.2-2.6,0.4-4.1,0.4
	v-4.1c1.1,0,2-0.1,3-0.2c-0.6-0.7-1.1-1.4-1.4-2.3c-0.4-0.8-0.7-1.7-0.9-2.6h4.6c0.4,0.7,0.6,1.3,0.9,1.9c0.4,0.6,0.8,1.1,1.4,1.4
	c0.7-0.5,1.2-1.1,1.7-1.8c0.4-0.7,0.8-1.4,1.1-2.4h-10l1.3-4.3h-1.7l1.4-3.7h4L83,24.6h1.5l-0.4,0.9h9.2
	C93.3,25.5,93.3,29.3,93.3,29.3z M88.2,16.8h5.5v3.6H78.8v-3.6h5.5v-1.5h-4.5v-3.6h4.5v-1.4h4v1.4h4.5v3.6h-4.5v1.5H88.2z
	 M92.4,21.3l1.3,3.4h-4l-1.3-3.4H92.4z M116.2,17.8l0.5-2.3H99l1.7-5.3h4.3l-0.5,1.4h16.8l-1.2,6.3h0.4c0.5,0,0.8,0.2,1.2,0.7
	c0.4,0.5,0.5,0.9,0.5,1.7v14.9c0,0.7-0.1,1.3-0.2,1.8c-0.1,0.6-0.4,1.1-0.7,1.4c-0.4,0.5-0.6,0.7-0.9,0.9c-0.5,0.2-0.8,0.4-1.2,0.4
	h-3.7l1.2-4h0.7c0.2,0,0.5-0.1,0.6-0.4c0.1-0.2,0.2-0.5,0.2-0.9v-0.1h-6.3v5.2h-4v-5.3h-6.4v5.3h-4V17.8H116.2z M101.6,24.1h6.3
	v-2.3h-6.3V24.1z M107.9,28.2h-6.3v1.9h6.3V28.2z M117.2,21.8H112v2.3h6.3v-0.8c0-0.5-0.1-0.8-0.2-1.1
	C117.6,21.9,117.4,21.8,117.2,21.8 M118.1,28.2h-6.3v1.9h6.3V28.2z M134.1,39.2h-3.6v-10l-1.2,2.3H126l7.2-14.1h-6.3v-3.3h3.8v-3.6
	h3.7v3.6h3.8l-4,7.8l2.7-1.1l0.8,3.3l-1.3,0.6l1.7,6.3h-2.7l-1.3-4.6L134.1,39.2L134.1,39.2z M153.1,22.3h-5.5v13.5h5.5
	c0,0,0.1,3.3,0,3.3h-14.7v-3.3h5.6V22.3h-5.6V19h5.6v-8.7h3.7V19h5.5C153.1,19,153.2,22.3,153.1,22.3z M181.7,39.2h-24.5
	c0-4.5,0-9,0-13.4s0-9.8,0-14.3h1.1h23.5v3.3h-20.9v21.1h20.9v3.3H181.7z M167.1,16.3l3.9,5.9l3.4-5.8h4.9l-6.2,9.1l5.9,9h-4.4
	l-3.7-5.7l-3.9,5.7h-4.4l6.3-9l-6.3-9.1h4.4v-0.1H167.1z"/>
<polygon class="st0" points="22.5,33.9 33.9,33.7 31.9,27.9 "/>
<polygon class="st0" points="35.9,25.3 33.4,26.9 33.6,27.1 35.6,33.2 38.3,31.4 38.2,31.3 "/>
<polygon class="st0" points="49.4,24.8 37.7,24.9 39.9,30.6 "/>
<polygon class="st0" points="28.9,11.2 35.9,25.1 35.9,25.3 36.7,24.9 37.7,24.9 37.6,24.4 37.6,24.4 25.9,1.2 24.1,1.8 31.8,27.7 
	31.9,27.9 33.4,26.9 "/>
<polygon class="st0" points="47.7,57.3 39.9,30.8 39.9,30.6 38.3,31.4 43.3,48.9 35.6,33.3 35.6,33.2 34.8,33.7 33.9,33.7 33.9,34 
	46.1,58.5 47.7,57.6 47.4,57.3 "/>
<polygon class="st0" points="26.7,21.9 27.8,23.3 29.6,23 28.8,24.8 29.6,26.6 27.8,26.2 26.7,27.7 26.3,25.7 24.9,24.8 26.3,23.8 
	"/>
<polygon class="st0" points="37.7,18 39.2,19.4 41,19.4 40.6,20.9 41.9,22.6 40.1,22 39.2,23 38.4,21.2 36.7,20.1 38,19.8 "/>
<path class="st0" d="M47.7,60.2l-26.2-26l2.8-34.6l26.1,24.8L47.7,60.2z M23.3,33.5l22.8,22.5l2.3-31L25.7,3.6L23.3,33.5z"/>
<path class="st0" d="M5.8,39.9c-1.6-3.8,3.1-9.3,12.5-15c0.4-0.2-22.4,17.3-1.2,15.7c4.4-0.4,9.1-0.6,20-4.8
	c8.6-3.3,15.3-6.9,19.7-10.8c16.2-14.7-14-10.2-13.4-10.2c11.3-2.8,19-2,20.7,2c1.2,2.8-0.6,6.4-5.7,10.5
	c-5.6,4.4-11.8,8.2-18.3,10.8c-7.2,2.8-14.8,4.6-22.4,5.2c-1,0.1-1.9,0.1-2.8,0.1"/>
<path class="st0" d="M14.8,43.5c-4.9,0-8-1.2-9-3.6"/>
<polygon class="st0" points="20.5,23 17.5,24.3 18.5,25.7 "/>
<path class="st1" d="M190.8,12.7v2.7h3.9l-0.5,1.3h-3.4v4.1h-2v-9.2h6l-0.5,1.2L190.8,12.7z"/>
<path class="st1" d="M197.7,12.7v6.8h3v-7.9h2v9.2h-7v-9.2h5l-0.7,1.2L197.7,12.7z"/>
<path class="st1" d="M207.8,20.7l-1.3-3.8h-1v3.8h-2v-9.2h4.3l-0.6,1.2h-1.5v3h2.3v-4.1h2v5.5h-1.3l1.3,3.8h-2.2V20.7z"/>
<path class="st1" d="M212.6,19.4h3.1l-0.7,1.2h-4.3v-9.1h1.9V19.4z M215.7,11.4h1.9v9.2h-1.9V11.4L215.7,11.4z"/>
<path class="st1" d="M226.8,20.7H225v-5.9l-1.7,5.9h-1.5l-1.7-5.9v5.9h-1.8v-9.2h2.5l1.8,6.4l1.8-6.4h2.4V20.7z"/>
</svg>
